# xmcd
#
# Track frame offsets:
#	150
#	16715
#	30478
#	49072
#	64752
#	81037
#	97004
#	113399
#	127276
#	144133
#	161628
#
# Disc length: 2329 seconds
#
# Revision: 0
# Processed by: cddbd v1.4PL0 Copyright (c) Steve Scherf et al.
# Submitted via: EasyCDDAExtractor 4.6.0.1
#
DISCID=8309170b
DTITLE=Reba McIntyre - What If It's You
DYEAR=1900
DGENRE=Country
TTITLE0=How Was I to Know
TTITLE1=The Fear of Being Alone
TTITLE2=What If It's You
TTITLE3=I'd Rather Ride Around With You
TTITLE4=It Don't Matter
TTITLE5=State of Grace
TTITLE6=Close To Crazy
TTITLE7=She's Calling It Love
TTITLE8=Just Looking For Him
TTITLE9=Never Had A Reason
TTITLE10=Bonus Track
EXTD=
EXTT0=
EXTT1=
EXTT2=
EXTT3=
EXTT4=
EXTT5=
EXTT6=
EXTT7=
EXTT8=
EXTT9=
EXTT10=
PLAYORDER=
